<svg width="48" height="48" viewBox="0 0 48 48" xmlns="http://www.w3.org/2000/svg"><title>theicons.co/svg/others-45</title><desc>Created with Sketch.</desc><g fill="none"><path d="M11.086 31.228l-3.085 3.079.003 1.876c1.05-.36 2.259-.121 3.097.716.841.841 1.078 2.057.712 3.11l1.856.005 3.102-3.102-5.685-5.685zm2.831-2.826c6.618-6.607 16.424-16.396 16.425-16.395 0 0 5.668 5.667 5.67 5.665l-16.413 16.413-5.682-5.682zm17.598-23.227c1.561-1.56 4.093-1.558 5.656.004l5.668 5.668c1.562 1.562 1.564 4.093.003 5.654l-26.795 26.795c-.389.389-1.15.705-1.711.705h-8.332c-1.105 0-2.001-.89-2.001-2.001v-8.331c0-.556.32-1.326.705-1.711l26.809-26.782z" fill="#4D4D4D"/></g></svg>