<?xml version="1.0" encoding="UTF-8"?>
<svg width="48px" height="48px" viewBox="0 0 48 48" version="1.1" xmlns="http://www.w3.org/2000/svg" xmlns:xlink="http://www.w3.org/1999/xlink">
    <!-- Generator: Sketch 40.1 (33804) - http://www.bohemiancoding.com/sketch -->
    <title>theicons.co/svg/text-01</title>
    <desc>Created with Sketch.</desc>
    <defs></defs>
    <g id="The-Icons" stroke="none" stroke-width="1" fill="none" fill-rule="evenodd">
        <g id="v-1.0" transform="translate(-96.000000, -2496.000000)" fill="#000">
            <g id="Text" transform="translate(96.000000, 2496.000000)">
                <g id="Text-Field-1">
                    <path d="M16,14 L5.99729162,14 C4.89153983,14 4,14.8913093 4,15.9907951 L4,32.0092049 C4,33.1017876 4.89421792,34 5.99729162,34 L16,34 L16,35.9946773 C16,38.2107758 14.2133742,40 11.9966691,40 L10.0033309,40 C8.89876145,40 8.00333095,40.8954305 8.00333095,42 C8.00333095,43.1045695 8.89876145,44 10.0033309,44 L11.9966691,44 C14.3909011,44 16.5362504,42.9525441 18.0016655,41.2908365 C19.4670806,42.9525441 21.6124298,44 24.0066619,44 L26,44 C27.1045695,44 28,43.1045695 28,42 C28,40.8954305 27.1045695,40 26,40 L24.0066619,40 C21.7899567,40 20.0033309,38.2107758 20.0033309,35.9946773 L20.0033309,34 L42.0027084,34 C43.1084602,34 44,33.1086907 44,32.0092049 L44,15.9907951 C44,14.8982124 43.1057821,14 42.0027084,14 L20.0033309,14 L20.0033309,12.0053227 C20.0033309,9.78571717 21.7909715,8 24.0066619,8 L26,8 C27.1045695,8 28,7.1045695 28,6 C28,4.8954305 27.1045695,4 26,4 L24.0066619,4 C21.6135934,4 19.4676148,5.04630171 18.0016655,6.70811 C16.5357162,5.04630171 14.3897376,4 11.9966691,4 L10.0033309,4 C8.89876145,4 8.00333095,4.8954305 8.00333095,6 C8.00333095,7.1045695 8.89876145,8 10.0033309,8 L11.9966691,8 C14.2123594,8 16,9.78571717 16,12.0053227 L16,14 Z M16,18 L8,18 L8,30 L16,30 L16,18 Z M20.0033309,18 L40,18 L40,30 L20.0033309,30 L20.0033309,18 Z" id="Combined-Shape"></path>
                </g>
            </g>
        </g>
    </g>
</svg>
