<?xml version="1.0" encoding="UTF-8"?>
<svg width="48px" height="48px" viewBox="0 0 48 48" version="1.1" xmlns="http://www.w3.org/2000/svg" xmlns:xlink="http://www.w3.org/1999/xlink">
    <!-- Generator: Sketch 40.1 (33804) - http://www.bohemiancoding.com/sketch -->
    <title>theicons.co/svg/finance-32</title>
    <desc>Created with Sketch.</desc>
    <defs></defs>
    <g id="The-Icons" stroke="none" stroke-width="1" fill="none" fill-rule="evenodd">
        <g id="v-1.0" transform="translate(-1296.000000, -1616.000000)" fill="#000">
            <g id="Finance-&amp;-Commerce" transform="translate(96.000000, 1536.000000)">
                <g id="Delivery-Box" transform="translate(1200.000000, 80.000000)">
                    <path d="M32.9688174,11.2758846 L37.9339609,14.0330702 L24.0200195,21.7215738 L19.2357009,19.0654408 L32.9688174,11.2758846 Z M28.8720856,9.00093532 L24,6.29542563 L10.1186239,14.0038696 L15.1384817,16.790768 L28.8720856,9.00093532 Z M26,40.6061355 L40,32.8108567 L40,17.4585264 L26,25.1808891 L26,40.6061355 Z M22,40.6100717 L8,32.8423462 L8.00000004,17.40308 L22,25.177084 L22,40.6100717 Z M5.02871414,12.2516854 C4.39378377,12.6044245 4,13.2736657 4,14 L4,34 C4,34.7263343 4.39378377,35.3955755 5.02871414,35.7483146 L23.0287141,45.7483146 C23.6327592,46.0838951 24.3672408,46.0838951 24.9712859,45.7483146 L42.9712859,35.7483146 C43.6062162,35.3955755 44,34.7263343 44,34 L44,14 C44,13.2736657 43.6062162,12.6044245 42.9712859,12.2516854 L24.9712859,2.25168545 C24.3672408,1.91610485 23.6327592,1.91610485 23.0287141,2.25168545 L5.02871414,12.2516854 Z M11.0418914,26.3487841 L16.0239471,29.1509081 C16.9866861,29.6923943 18.2061016,29.3509014 18.7475878,28.3881623 C19.289074,27.4254232 18.947581,26.2060077 17.984842,25.6645216 L13.0027863,22.8623975 C12.0400473,22.3209114 10.8206318,22.6624043 10.2791456,23.6251434 C9.73765942,24.5878824 10.0791524,25.8072979 11.0418914,26.3487841 Z" id="Combined-Shape"></path>
                </g>
            </g>
        </g>
    </g>
</svg>
