<?xml version="1.0" encoding="UTF-8"?>
<svg width="48px" height="48px" viewBox="0 0 48 48" version="1.1" xmlns="http://www.w3.org/2000/svg" xmlns:xlink="http://www.w3.org/1999/xlink">
    <!-- Generator: Sketch 40.1 (33804) - http://www.bohemiancoding.com/sketch -->
    <title>theicons.co/svg/text-06</title>
    <desc>Created with Sketch.</desc>
    <defs></defs>
    <g id="The-Icons" stroke="none" stroke-width="1" fill="none" fill-rule="evenodd">
        <g id="v-1.0" transform="translate(-496.000000, -2496.000000)" fill="#000">
            <g id="Text" transform="translate(96.000000, 2496.000000)">
                <g id="Quote" transform="translate(400.000000, 0.000000)">
                    <path d="M30.082996,22 L40.0059397,22 C41.1072288,22 42,22.8982124 42,23.9907951 L42,40.0092049 C42,41.1086907 41.1054862,42 40.0059397,42 L27.9940603,42 C26.8927712,42 26,41.1017876 26,40.0092049 L26,24.0489368 C25.9988448,24.0225376 25.9977409,23.9928989 25.9966018,23.956653 C25.9639542,22.9178596 26.0504598,21.521679 26.3520469,19.888718 C26.8136266,17.3894681 27.688678,14.9117123 29.0810546,12.5865236 C30.5075969,10.2042801 32.411561,8.10375852 34.8382368,6.37202387 C35.7373432,5.73039978 36.986352,5.93913041 37.6279761,6.8382368 C38.2696002,7.73734319 38.0608696,8.98635203 37.1617632,9.62797613 C35.1934909,11.0325829 33.6624783,12.721651 32.5128069,14.641536 C31.3822208,16.5295497 30.6650361,18.5602973 30.2855251,20.6151814 C30.1971699,21.0935862 30.1305134,21.5565371 30.082996,22 Z M10.082996,22 L20.0059397,22 C21.1072288,22 22,22.8982124 22,23.9907951 L22,40.0092049 C22,41.1086907 21.1054862,42 20.0059397,42 L7.99406028,42 C6.8927712,42 6,41.1017876 6,40.0092049 L6,24.0489368 C5.99884476,24.0225376 5.99774092,23.9928989 5.99660177,23.956653 C5.96395422,22.9178596 6.05045979,21.521679 6.35204692,19.888718 C6.8136266,17.3894681 7.68867799,14.9117123 9.08105456,12.5865236 C10.5075969,10.2042801 12.411561,8.10375852 14.8382368,6.37202387 C15.7373432,5.73039978 16.986352,5.93913041 17.6279761,6.8382368 C18.2696002,7.73734319 18.0608696,8.98635203 17.1617632,9.62797613 C15.1934909,11.0325829 13.6624783,12.721651 12.5128069,14.641536 C11.3822208,16.5295497 10.6650361,18.5602973 10.2855251,20.6151814 C10.1971699,21.0935862 10.1305134,21.5565371 10.082996,22 Z M10,26 L18,26 L18,38 L10,38 L10,26 Z M30,26 L38,26 L38,38 L30,38 L30,26 Z" id="Combined-Shape"></path>
                </g>
            </g>
        </g>
    </g>
</svg>
