<?xml version="1.0" encoding="UTF-8"?>
<svg width="48px" height="48px" viewBox="0 0 48 48" version="1.1" xmlns="http://www.w3.org/2000/svg" xmlns:xlink="http://www.w3.org/1999/xlink">
    <!-- Generator: Sketch 40.1 (33804) - http://www.bohemiancoding.com/sketch -->
    <title>theicons.co/svg/text-04</title>
    <desc>Created with Sketch.</desc>
    <defs></defs>
    <g id="The-Icons" stroke="none" stroke-width="1" fill="none" fill-rule="evenodd">
        <g id="v-1.0" transform="translate(-336.000000, -2496.000000)" fill="#000">
            <g id="Text" transform="translate(96.000000, 2496.000000)">
                <g id="Text-Color" transform="translate(240.000000, 0.000000)">
                    <path d="M29.2579527,23 L24,12.5 L18.7420473,23 L29.2579527,23 Z M31.2609824,27 L33.2111456,30.8944272 C33.7051241,31.8823842 34.9064702,32.2828329 35.8944272,31.7888544 C36.8823842,31.2948759 37.2828329,30.0935298 36.7888544,29.1055728 L25.7888544,7.10557281 C25.0518058,5.63147573 22.9481942,5.63147573 22.2111456,7.10557281 L11.2111456,29.1055728 C10.7171671,30.0935298 11.1176158,31.2948759 12.1055728,31.7888544 C13.0935298,32.2828329 14.2948759,31.8823842 14.7888544,30.8944272 L16.7390176,27 L31.2609824,27 Z M6,39 C6,37.3431458 7.34553934,36 9.00741988,36 L38.9925801,36 C40.6535323,36 42,37.3465171 42,39 C42,40.6568542 40.6544607,42 38.9925801,42 L9.00741988,42 C7.34646775,42 6,40.6534829 6,39 Z" id="Combined-Shape"></path>
                </g>
            </g>
        </g>
    </g>
</svg>
