<?xml version="1.0" encoding="UTF-8"?>
<svg width="48px" height="48px" viewBox="0 0 48 48" version="1.1" xmlns="http://www.w3.org/2000/svg" xmlns:xlink="http://www.w3.org/1999/xlink">
    <!-- Generator: Sketch 40.1 (33804) - http://www.bohemiancoding.com/sketch -->
    <title>theicons.co/svg/others-29</title>
    <desc>Created with Sketch.</desc>
    <defs></defs>
    <g id="The-Icons" stroke="none" stroke-width="1" fill="none" fill-rule="evenodd">
        <g id="v-1.0" transform="translate(-496.000000, -1056.000000)" fill="#000">
            <g id="Others" transform="translate(96.000000, 896.000000)">
                <g id="Film" transform="translate(400.000000, 160.000000)">
                    <path d="M18,38 L18,26 L30,26 L30,38 L18,38 Z M18,42 L18,42.0027084 C18,43.1057821 17.0980496,44 15.9914698,44 L14.9957349,44 C14.4458057,44 14,43.5510598 14,43.0093689 C14,42.4433532 13.5480902,42 12.9906311,42 L11.0093689,42 C10.4433532,42 10,42.4519098 10,43.0093689 C10,43.5564793 9.55802831,44 9.0042651,44 L8.0085302,44 C6.8992496,44 6,43.1084602 6,42.0027084 L6,5.99729162 C6,4.89421792 6.90195036,4 8.0085302,4 L9.0042651,4 C9.5541943,4 10,4.44894018 10,4.9906311 C10,5.55664682 10.4519098,6 11.0093689,6 L12.9906311,6 C13.5566468,6 14,5.54809015 14,4.9906311 C14,4.44352065 14.4419717,4 14.9957349,4 L15.9914698,4 C17.1007504,4 18,4.89153983 18,5.99729162 L30,6 C30,4.89421792 30.9019504,4 32.0085302,4 L33.0042651,4 C33.5541943,4 34,4.44894018 34,4.9906311 C34,5.55664682 34.4519098,6 35.0093689,6 L36.9906311,6 C37.5566468,6 38,5.54809015 38,4.9906311 C38,4.44352065 38.4419717,4 38.9957349,4 L39.9914698,4 C41.1007504,4 42,4.89153983 42,5.99729162 L42,42.0027084 C42,43.1057821 41.0980496,44 39.9914698,44 L38.9957349,44 C38.4458057,44 38,43.5510598 38,43.0093689 C38,42.4433532 37.5480902,42 36.9906311,42 L35.0093689,42 C34.4433532,42 34,42.4519098 34,43.0093689 C34,43.5564793 33.5580283,44 33.0042651,44 L32.0085302,44 C30.8992496,44 30,43.1084602 30,42.0027084 L30,42 L18,42 Z M18,22 L18,10 L30,10 L30,22 L18,22 Z M10,11.0093689 C10,10.4519098 10.4433532,10 11.0093689,10 L12.9906311,10 C13.5480902,10 14,10.4433532 14,11.0093689 L14,12.9906311 C14,13.5480902 13.5566468,14 12.9906311,14 L11.0093689,14 C10.4519098,14 10,13.5566468 10,12.9906311 L10,11.0093689 Z M10,19.0093689 C10,18.4519098 10.4433532,18 11.0093689,18 L12.9906311,18 C13.5480902,18 14,18.4433532 14,19.0093689 L14,20.9906311 C14,21.5480902 13.5566468,22 12.9906311,22 L11.0093689,22 C10.4519098,22 10,21.5566468 10,20.9906311 L10,19.0093689 Z M10,35.0093689 C10,34.4519098 10.4433532,34 11.0093689,34 L12.9906311,34 C13.5480902,34 14,34.4433532 14,35.0093689 L14,36.9906311 C14,37.5480902 13.5566468,38 12.9906311,38 L11.0093689,38 C10.4519098,38 10,37.5566468 10,36.9906311 L10,35.0093689 Z M10,27.0093689 C10,26.4519098 10.4433532,26 11.0093689,26 L12.9906311,26 C13.5480902,26 14,26.4433532 14,27.0093689 L14,28.9906311 C14,29.5480902 13.5566468,30 12.9906311,30 L11.0093689,30 C10.4519098,30 10,29.5566468 10,28.9906311 L10,27.0093689 Z M34,11.0093689 C34,10.4519098 34.4433532,10 35.0093689,10 L36.9906311,10 C37.5480902,10 38,10.4433532 38,11.0093689 L38,12.9906311 C38,13.5480902 37.5566468,14 36.9906311,14 L35.0093689,14 C34.4519098,14 34,13.5566468 34,12.9906311 L34,11.0093689 Z M34,19.0093689 C34,18.4519098 34.4433532,18 35.0093689,18 L36.9906311,18 C37.5480902,18 38,18.4433532 38,19.0093689 L38,20.9906311 C38,21.5480902 37.5566468,22 36.9906311,22 L35.0093689,22 C34.4519098,22 34,21.5566468 34,20.9906311 L34,19.0093689 Z M34,35.0093689 C34,34.4519098 34.4433532,34 35.0093689,34 L36.9906311,34 C37.5480902,34 38,34.4433532 38,35.0093689 L38,36.9906311 C38,37.5480902 37.5566468,38 36.9906311,38 L35.0093689,38 C34.4519098,38 34,37.5566468 34,36.9906311 L34,35.0093689 Z M34,27.0093689 C34,26.4519098 34.4433532,26 35.0093689,26 L36.9906311,26 C37.5480902,26 38,26.4433532 38,27.0093689 L38,28.9906311 C38,29.5480902 37.5566468,30 36.9906311,30 L35.0093689,30 C34.4519098,30 34,29.5566468 34,28.9906311 L34,27.0093689 Z" id="Rectangle-830"></path>
                </g>
            </g>
        </g>
    </g>
</svg>
