<?xml version="1.0" encoding="UTF-8"?>
<svg width="48px" height="48px" viewBox="0 0 48 48" version="1.1" xmlns="http://www.w3.org/2000/svg" xmlns:xlink="http://www.w3.org/1999/xlink">
    <!-- Generator: Sketch 40.1 (33804) - http://www.bohemiancoding.com/sketch -->
    <title>theicons.co/svg/others-27</title>
    <desc>Created with Sketch.</desc>
    <defs></defs>
    <g id="The-Icons" stroke="none" stroke-width="1" fill="none" fill-rule="evenodd">
        <g id="v-1.0" transform="translate(-336.000000, -1056.000000)" fill="#FFF">
            <g id="Others" transform="translate(96.000000, 896.000000)">
                <g id="ID-Card-2" transform="translate(240.000000, 160.000000)">
                    <path d="M19,12 L12.0042577,12 C9.78902751,12 8,13.7927672 8,16.0042577 L8,39.9957423 C8,42.2109725 9.79276724,44 12.0042577,44 L35.9957423,44 C38.2109725,44 40,42.2072328 40,39.9957423 L40,16.0042577 C40,13.7890275 38.2072328,12 35.9957423,12 L29,12 L29,5.99406028 C29,4.89451376 28.1047419,4 27.000385,4 L20.999615,4 C19.8874333,4 19,4.8927712 19,5.99406028 L19,12 Z M19,16 L12,16 L12,40 L36,40 L36,16 L29,16 L29,18.0059397 C29,19.1072288 28.1125667,20 27.000385,20 L20.999615,20 C19.8952581,20 19,19.1054862 19,18.0059397 L19,16 Z M21.4560695,30.2737564 L18.8862393,31.5573397 C18.3940852,31.8031616 18,32.4519098 18,33.0093689 L18,34 C18,35.1122704 18.8992496,36 20.0085302,36 L27.9914698,36 C29.0980496,36 30,35.1045695 30,34 L30,33.0093689 C30,32.4433532 29.5982523,31.7989175 29.1026714,31.5508697 L26.5457704,30.2710913 C27.4339548,28.9839192 28,27.2419887 28,26 C28,23.790861 26.209139,22 24,22 C21.790861,22 20,23.790861 20,26 C20,27.2428461 20.566827,28.9863245 21.4560695,30.2737564 Z M23,8 L25,8 L25,16 L23,16 L23,8 Z" id="Combined-Shape"></path>
                </g>
            </g>
        </g>
    </g>
</svg>
